<svg width="1414" height="983" viewBox="0 0 1414 983" fill="none" xmlns="http://www.w3.org/2000/svg">
<path d="M7.14542 157.337C6.26411 39.4742 87.331 -66.5425 200.627 -97.5397C354.91 -139.746 516.868 -36.2094 535.443 123.642C536.026 128.644 539.375 157.35 534.616 157.35H7.14542V157.337Z" fill="#191919"/>
<path d="M1.24745 424.452C0.35258 306.576 81.4195 200.573 194.729 169.576C349.012 127.369 510.97 230.906 529.545 390.758C530.128 395.759 533.477 424.466 528.718 424.466H1.24745V424.452Z" fill="#191919"/>
<path d="M881.838 159.315C880.943 41.4392 962.01 -64.564 1075.32 -95.5612C1229.6 -137.767 1391.56 -34.2309 1410.14 125.621C1410.72 130.622 1414.07 159.329 1409.31 159.329H881.838V159.315Z" fill="#191919"/>
<path d="M881.906 426.432C881.011 308.555 962.078 202.552 1075.39 171.555C1229.67 129.349 1391.63 232.885 1410.2 392.737C1410.79 397.738 1414.14 426.445 1409.38 426.445H881.906V426.432Z" fill="#191919"/>
<path d="M881.784 761.898C880.889 879.775 961.956 985.778 1075.27 1016.77C1229.55 1058.98 1391.51 955.445 1410.08 795.593C1410.66 790.591 1414.01 761.885 1409.25 761.885H881.784V761.898Z" fill="#191919"/>
<path d="M884.021 495.867C883.126 613.743 964.193 719.746 1077.5 750.744C1231.79 792.95 1393.74 689.413 1412.32 529.561C1412.9 524.56 1416.25 495.854 1411.49 495.854H884.021V495.867Z" fill="#191919"/>
<path d="M1.84401 763.172C0.949138 881.048 82.0161 987.051 195.325 1018.05C349.609 1060.25 511.566 956.718 530.142 796.866C530.725 791.865 534.074 763.158 529.315 763.158H1.84401V763.172Z" fill="#191919"/>
<path d="M1.15954e-05 496.057C-0.894857 613.933 80.1721 719.936 193.481 750.933C347.765 793.139 509.722 689.603 528.298 529.751C528.881 524.75 532.23 496.043 527.471 496.043H1.15954e-05V496.057Z" fill="#191919"/>
<path d="M583.427 -103.218C701.332 -104.763 807.835 -24.309 839.467 88.7692C882.543 242.752 779.864 405.234 620.062 424.683C615.059 425.293 586.369 428.803 586.342 424.046L583.427 -103.218Z" fill="#191919"/>
<path d="M828.905 1028.99C711 1030.21 604.714 949.454 573.394 836.28C530.738 682.175 633.878 519.979 793.734 500.976C798.738 500.38 827.441 496.951 827.455 501.708L828.905 1028.97V1028.99Z" fill="#191919"/>
</svg>
