<svg width="168" height="8" viewBox="0 0 168 8" fill="none" xmlns="http://www.w3.org/2000/svg">
<path d="M15.1109 7.15344C15.1109 3.20259 11.7283 0 7.55532 0C3.38238 0 -0.000244141 3.20259 -0.000244141 7.15344" fill="#E95212"/>
<path d="M101.333 7.15344C101.333 3.20259 97.9502 0 93.7772 0C89.6043 0 86.2217 3.20259 86.2217 7.15344" fill="#E95212"/>
<path d="M16.8886 2.68844e-06C16.8886 3.95086 20.2712 7.15344 24.4442 7.15344C28.6171 7.15344 31.9998 3.95086 31.9998 2.68844e-06" fill="#E95212"/>
<path d="M103.111 2.68844e-06C103.111 3.95086 106.493 7.15344 110.666 7.15344C114.839 7.15344 118.222 3.95086 118.222 2.68844e-06" fill="#E95212"/>
<path d="M49.7776 2.68844e-06C49.7776 3.95086 53.1602 7.15344 57.3331 7.15344C61.506 7.15344 64.8887 3.95086 64.8887 2.68844e-06" fill="#E95212"/>
<path d="M135.999 2.68844e-06C135.999 3.95086 139.382 7.15344 143.555 7.15344C147.728 7.15344 151.11 3.95086 151.11 2.68844e-06" fill="#E95212"/>
<path d="M48.8887 7.15344C48.8887 3.20259 45.3071 0 40.8887 0C36.4703 0 32.8887 3.20259 32.8887 7.15344" fill="#E95212"/>
<path d="M135.111 7.15344C135.111 3.20259 131.529 0 127.111 0C122.692 0 119.111 3.20259 119.111 7.15344" fill="#E95212"/>
<path d="M81.7779 7.15344C81.7779 3.20259 78.3953 0 74.2223 0C70.0494 0 66.6667 3.20259 66.6667 7.15344" fill="#E95212"/>
<path d="M168 7.15344C168 3.20259 164.618 0 160.445 0C156.272 0 152.889 3.20259 152.889 7.15344" fill="#E95212"/>
</svg>
