<svg width="196" height="156" viewBox="0 0 196 156" fill="none" xmlns="http://www.w3.org/2000/svg">
<path d="M74.2085 36.9554C74.2085 16.5449 57.6638 0 37.2533 0C16.8428 0 0.297852 16.5449 0.297852 36.9554" fill="#2D4917"/>
<path d="M74.2085 118.771C74.2085 139.182 57.6638 155.727 37.2533 155.727C16.8428 155.727 0.297852 139.182 0.297852 118.771" fill="#A5BCF5"/>
<path d="M74.2085 73.7752C74.2085 53.3647 57.6638 36.8198 37.2533 36.8198C16.8428 36.8198 0.297852 53.3647 0.297852 73.7752" fill="#FCED5E"/>
<path d="M74.2085 81.7573C74.2085 102.168 57.6638 118.713 37.2533 118.713C16.8428 118.713 0.297852 102.168 0.297852 81.7573" fill="#E95212"/>
<path d="M153.319 36.9554C153.319 16.5449 136.774 0 116.364 0C95.9531 0 79.4082 16.5449 79.4082 36.9554" fill="#E95212"/>
<path d="M158.074 78.1436C178.484 78.1436 195.029 61.5988 195.029 41.1883C195.029 20.7778 178.484 4.23291 158.074 4.23291" fill="#A5BCF5"/>
<path d="M195.029 151.629C174.619 151.629 158.074 135.084 158.074 114.674C158.074 94.2631 174.619 77.7183 195.029 77.7183" fill="#2D4917"/>
<path d="M153.319 118.771C153.319 139.182 136.774 155.727 116.364 155.727C95.9531 155.727 79.4082 139.182 79.4082 118.771" fill="#FCED5E"/>
<path d="M153.319 73.7752C153.319 53.3647 136.774 36.8198 116.364 36.8198C95.9531 36.8198 79.4082 53.3647 79.4082 73.7752" fill="#A5BCF5"/>
<path d="M153.319 81.9321C153.319 102.343 136.774 118.887 116.364 118.887C95.9531 118.887 79.4082 102.343 79.4082 81.9321" fill="#2D4917"/>
</svg>
