<svg width="559.48" height="67.83" viewBox="0 0 1288 157" fill="none" xmlns="http://www.w3.org/2000/svg">
<path d="M630.497 65.9841H633.204C633.605 49.0114 642.006 31.6711 659.502 27.109C670.069 24.3523 684.663 24.8496 693.303 32.2008C703.014 40.4602 704.552 53.9626 704.119 65.9949H706.825C707.626 48.2222 715.855 30.99 734.52 26.8928C761.348 21.001 781.897 33.4657 784.171 61.476L784.236 154.112H727.396V81.4109C727.396 79.8541 725.631 74.1461 724.613 72.838C720.802 67.984 713.906 70.4597 711.99 75.7461C711.665 76.6434 710.625 80.7298 710.625 81.4109V154.112H653.786V85.1946C653.786 83.1297 652.854 77.0109 652.021 75.065C649.942 70.1894 643.641 68.4165 640.014 72.5353C638.888 73.8218 636.993 79.2595 636.993 80.8703V154.112H579.612V28.1468H630.497V65.9841Z" fill="#FEF6EB"/>
<path d="M1082.51 0.57959C1082.34 1.10931 1083.05 1.74714 1083.05 1.93092V153.28L1082.24 154.091H1030.81L1030 153.28V116.253C1026.59 115.962 1026.76 122.199 1025.95 124.913C1019.48 146.599 1007.75 158.307 983.728 156.242C944.092 152.837 939.999 108.221 942.316 77.0757C944.568 46.741 963.266 20.7847 996.655 26.0386C1015.87 29.0656 1024.75 47.4653 1027.53 64.9353L1031.08 65.4434C1024.34 44.3302 1025.69 22.4819 1025.67 0.57959H1082.51ZM1010.37 68.2758C998.128 70.3947 999.124 95.9618 1001.7 104.783C1003.93 112.426 1008.32 114.621 1016.15 113.507C1020.34 112.913 1022.84 108.902 1024.02 105.151C1026.28 97.9942 1026.27 81.0972 1022.99 74.3514C1020.58 69.3893 1015.8 67.3461 1010.37 68.2866V68.2758Z" fill="#FEF6EB"/>
<path d="M278.632 154.091H221.792V84.0917C221.792 81.8323 220.742 76.4702 219.714 74.2648C217.137 68.7514 209.439 68.8703 206.776 74.5027C206.364 75.3675 205 79.6269 205 80.2972V154.08H147.619V28.1466H197.963V65.1731L201.211 65.9839C201.709 45.0869 212.287 28.6764 234.027 26.0494C260.021 22.9143 276.629 37.2276 278.611 63.0109V154.08L278.632 154.091Z" fill="#FEF6EB"/>
<path d="M936.35 109.767V149.496C928.685 155.723 913.809 157.02 904.152 156.242C888.821 155.02 875.721 144.74 875.721 128.415V118.416H873.567C873.069 135.496 866.02 149.68 848.644 154.361C818.686 162.437 786.575 148.61 791.869 113.345C796.568 82.1027 831.624 86.2864 854.804 83.2162C858.983 82.6648 868.229 80.9459 869.507 76.2757C873.686 61.0219 844.638 61.8003 847.02 76.7946H793.969C794.013 59.5193 802.511 44.233 817.42 35.6169C841.65 21.6172 890.272 21.8766 911.98 40.8385C932.312 58.6003 925.989 85.3783 927.245 109.378C928.815 113.821 933.373 111.378 936.329 109.767H936.35ZM869.766 87.0648C866.519 86.5134 867.46 88.6215 866.454 90.5133C863.238 96.5024 847.973 95.8646 847.55 106.243C847.063 118.189 863.53 118.891 868.067 111.043C868.402 110.47 869.766 106.632 869.766 106.254V87.0648Z" fill="#FEF6EB"/>
<path d="M68.4982 25.5846C106.099 25.1197 136.76 43.66 139.499 83.5512C143.126 136.221 107.474 161.215 57.4983 155.701C14.0727 150.912 -4.91721 118.859 1.08074 77.2162C6.18009 41.7897 34.8598 25.9954 68.4982 25.5846ZM61.7532 111.205C65.4992 115.172 74.2796 114.707 78.0256 110.805C84.4025 104.145 84.0561 77.8216 77.7983 71.1298C73.0562 66.0596 63.3339 67.3677 60.0318 73.3892C55.961 80.8269 55.7119 104.816 61.7424 111.205H61.7532Z" fill="#FEF6EB"/>
<path d="M424.793 85.443H369.035C369.23 75.3783 365.95 66.5676 354.192 68.1892C343.192 69.7027 343.474 89.9402 344.134 98.1347C344.87 107.086 348.53 115.01 358.945 114.037C369.36 113.064 368.592 101.724 369.566 94.0915H425.323C425.269 112.156 420.126 129.15 406.117 141.129C381.735 161.982 329.908 161.366 305.97 140.015C281.784 118.448 280.484 70.5135 301.618 46.5139C319.796 25.8764 354.333 22.5359 379.754 27.9737C408.737 34.179 425.605 55.7138 424.782 85.443H424.793Z" fill="#FEF6EB"/>
<path d="M571.492 91.9294H488.127C488.679 99.259 490.433 108.74 497.762 112.307C504.594 115.637 517.51 114.567 518.982 105.443H571.492C569.456 131.226 554.169 148.004 529.279 153.831C472.017 167.215 418.392 133.658 434.805 70.3082C445.729 28.1359 494.709 18.2982 531.855 29.6277C560.892 38.4816 573.246 62.5461 571.502 91.9294H571.492ZM517.358 82.7404C517.131 73.3892 515.388 61.9948 503.544 62.1569C491.548 62.3191 487.715 72.2324 488.127 82.7404H517.358Z" fill="#FEF6EB"/>
<path d="M1230.29 91.9293H1146.93C1146.89 102.924 1151.48 113.864 1163.98 114.124C1169.1 114.232 1177.48 111.713 1177.24 105.443H1229.75C1228.45 136.037 1206.29 152.404 1177.45 155.647C1137.04 160.188 1094.96 144.642 1091.18 99.2265C1088.28 64.3297 1103.74 35.4978 1139.35 27.8763C1163.11 22.7953 1197.84 25.6925 1215.42 44.3625C1227.43 57.1191 1230.72 74.9134 1230.29 91.9401V91.9293ZM1176.16 82.7403C1175.31 76.4701 1175.14 66.3297 1168.26 63.3352C1155.29 57.692 1144.72 70.2324 1146.93 82.7403H1176.16Z" fill="#FEF6EB"/>
<path d="M1237.11 156.382C1237.11 142.35 1248.5 130.977 1262.56 130.977C1276.61 130.977 1288 142.35 1288 156.382H1237.11Z" fill="#FEF6EB"/>
</svg>
