<svg width="35" height="35" viewBox="0 0 35 35" fill="none" xmlns="http://www.w3.org/2000/svg">
<path fill-rule="evenodd" clip-rule="evenodd" d="M0.599025 1.44708C0.944729 1.1018 1.41335 0.907867 1.90194 0.907867C2.39054 0.907867 2.85916 1.1018 3.20486 1.44708L32.7049 30.9471C32.886 31.1159 33.0313 31.3194 33.1321 31.5456C33.2328 31.7718 33.287 32.0159 33.2914 32.2635C33.2958 32.511 33.2502 32.7569 33.1575 32.9865C33.0648 33.2161 32.9267 33.4246 32.7517 33.5997C32.5766 33.7748 32.368 33.9128 32.1384 34.0055C31.9089 34.0983 31.663 34.1438 31.4154 34.1394C31.1678 34.1351 30.9237 34.0809 30.6975 33.9801C30.4714 33.8794 30.2678 33.7341 30.099 33.5529L0.599025 4.05291C0.253751 3.70721 0.0598145 3.23859 0.0598145 2.75C0.0598145 2.2614 0.253751 1.79278 0.599025 1.44708Z" fill="#191919"/>
<path fill-rule="evenodd" clip-rule="evenodd" d="M32.7052 1.44708C33.0504 1.79278 33.2444 2.2614 33.2444 2.75C33.2444 3.23859 33.0504 3.70721 32.7052 4.05291L3.20517 33.5529C2.85566 33.8786 2.39337 34.0559 1.91572 34.0475C1.43806 34.039 0.982321 33.8455 0.644514 33.5077C0.306707 33.1699 0.113207 32.7142 0.104779 32.2365C0.0963517 31.7589 0.273654 31.2966 0.599334 30.9471L30.0993 1.44708C30.445 1.1018 30.9137 0.907867 31.4023 0.907867C31.8908 0.907867 32.3595 1.1018 32.7052 1.44708Z" fill="#191919"/>
</svg>
